<?xml version="1.0" encoding="UTF-8"?>
<svg version="1.1" xmlns="http://www.w3.org/2000/svg" width="923" height="830">
<path d="M0 0 C304.59 0 609.18 0 923 0 C923 273.9 923 547.8 923 830 C618.41 830 313.82 830 0 830 C0 556.1 0 282.2 0 0 Z " fill="#FEFEFE" transform="translate(0,0)"/>
<path d="M0 0 C11.6497393 -0.14006621 23.29927276 -0.24615563 34.94968796 -0.31087303 C40.36162162 -0.34196088 45.77297213 -0.38401287 51.18457031 -0.45263672 C56.42367387 -0.51864454 61.66222267 -0.55387468 66.90171051 -0.56926346 C68.88368698 -0.58020576 70.86563896 -0.60156513 72.84737396 -0.63438034 C95.84132443 -0.99939922 115.47759494 4.64229941 133 20 C134.04994141 20.90685547 134.04994141 20.90685547 135.12109375 21.83203125 C146.3352722 32.21552982 154.29417568 47.85349385 155.18610811 63.20272803 C155.25755794 67.07296559 155.26696198 70.94063298 155.25396729 74.81124878 C155.25627429 76.31102879 155.25945242 77.81080766 155.26342177 79.31058419 C155.27174646 83.41517381 155.26765499 87.51967005 155.26144934 91.62425995 C155.25691592 96.05805076 155.26391329 100.49182575 155.26940918 104.9256134 C155.27829752 113.6076522 155.27638301 122.28965639 155.2705839 130.97169654 C155.26606231 138.0346325 155.26545667 145.09755877 155.26763153 152.16049576 C155.267938 153.16679747 155.26824446 154.17309917 155.26856022 155.20989487 C155.2691997 157.25447718 155.26984812 159.29905948 155.2705054 161.34364177 C155.27620781 180.51488654 155.26965371 199.68611219 155.25890467 218.85735382 C155.24998286 235.27698247 155.25151005 251.69658281 155.26074219 268.11621094 C155.27146991 287.20458635 155.27564418 306.29294497 155.26951766 325.38132298 C155.26888061 327.42133085 155.26825186 329.46133872 155.26763153 331.50134659 C155.26732298 332.50491842 155.26701443 333.50849024 155.26669653 334.54247334 C155.26497606 341.58488783 155.26787094 348.6272916 155.27259064 355.66970444 C155.27822792 364.27017195 155.27662417 372.87060301 155.26602915 381.4710664 C155.2608084 385.8521296 155.25865335 390.23313225 155.26532745 394.61419487 C155.31251425 428.38777727 155.31251425 428.38777727 153 444 C152.74309072 445.73669858 152.74309072 445.73669858 152.48099136 447.50848198 C145.08577846 494.81061337 121.08893163 537.03880064 88.48779297 571.42871094 C87.08921958 572.90577335 85.70239435 574.39393445 84.31640625 575.8828125 C72.88922144 587.80240201 59.11801286 596.60190022 45 605 C44.32694824 605.40573242 43.65389648 605.81146484 42.96044922 606.22949219 C12.71648201 624.32564528 -21.3553537 635.32455151 -56 641 C-56.90830566 641.15243164 -57.81661133 641.30486328 -58.75244141 641.46191406 C-83.67032554 645.48808065 -110.84193196 646.07673837 -135.86279297 642.31201172 C-138.20797025 641.96963834 -140.55648978 641.68799748 -142.91015625 641.41015625 C-171.91690286 637.83878794 -199.50931154 629.1783025 -226 617 C-227.25876953 616.42209717 -227.25876953 616.42209717 -228.54296875 615.83251953 C-263.65461962 599.49471454 -297.38057367 573.87425885 -321 543 C-321.45971191 542.41138184 -321.91942383 541.82276367 -322.39306641 541.21630859 C-329.68685156 531.87314771 -336.22400206 522.34980851 -342 512 C-342.40460449 511.28505371 -342.80920898 510.57010742 -343.22607422 509.83349609 C-350.07710817 497.64597818 -355.41298354 485.19773158 -360 472 C-360.28359375 471.195625 -360.5671875 470.39125 -360.859375 469.5625 C-363.95373293 460.68811498 -366.44008542 451.78789317 -368.25 442.5625 C-368.40114258 441.80195313 -368.55228516 441.04140625 -368.70800781 440.2578125 C-371.78628378 423.33076902 -372.28958108 406.32297237 -372.22705078 389.16699219 C-372.22648502 386.95717372 -372.22680644 384.74735487 -372.22793579 382.53753662 C-372.22850387 376.60499199 -372.21683899 370.67253013 -372.20278788 364.74000454 C-372.19018849 358.51541514 -372.18910282 352.29082333 -372.18673706 346.06622314 C-372.18054913 334.30876999 -372.16417508 322.55135453 -372.14403808 310.79391789 C-372.12818355 301.39744475 -372.11730022 292.00097565 -372.10986328 282.60449219 C-372.10905929 281.59865109 -372.10905929 281.59865109 -372.10823905 280.57248998 C-372.10361192 274.73746841 -372.099307 268.90244661 -372.09503365 263.06742477 C-372.07629224 238.04492167 -372.03642874 213.02249809 -372 188 C-317.55 188 -263.1 188 -207 188 C-206.98582031 207.01625 -206.97164062 226.0325 -206.95703125 245.625 C-206.93697368 257.67449165 -206.91569 269.72396242 -206.88867188 281.7734375 C-206.87453901 288.10514244 -206.86071618 294.43684795 -206.84741211 300.76855469 C-206.84573192 301.56205141 -206.84405173 302.35554814 -206.84232062 303.17309022 C-206.815702 315.9573314 -206.80656231 328.74152773 -206.80395857 341.52579379 C-206.80089126 354.66119757 -206.77885498 367.79647245 -206.73947543 380.93181801 C-206.71579648 389.02686265 -206.70663831 397.12164939 -206.71648689 405.2167238 C-206.72246754 411.44045014 -206.70196367 417.66384229 -206.67193985 423.88749313 C-206.66373885 426.42859984 -206.66391819 428.96975057 -206.67340279 431.51085281 C-206.74745155 453.54225925 -204.06600162 471.05443029 -188.39453125 487.6875 C-182.36962291 493.50600854 -175.69435289 497.36370965 -168.125 500.8125 C-167.50165771 501.10278076 -166.87831543 501.39306152 -166.23608398 501.69213867 C-154.02537639 506.96575764 -140.65757823 506.31160056 -127.6328125 506.30078125 C-125.66567903 506.30467758 -123.69854638 506.30901415 -121.73141479 506.31376648 C-117.62478905 506.32119141 -113.51824934 506.32096454 -109.41162109 506.31567383 C-104.18485023 506.30988301 -98.95843417 506.32681926 -93.73172188 506.3500185 C-89.67359405 506.36484753 -85.61554988 506.36561516 -81.55739975 506.36250877 C-79.63194959 506.36301735 -77.70649416 506.36816644 -75.78107071 506.37832069 C-61.8507986 506.44278677 -48.33344853 506.06891591 -35.75 499.3125 C-35.08162109 498.96364746 -34.41324219 498.61479492 -33.72460938 498.25537109 C-18.601679 490.12040347 -8.93574754 478.09198283 -2.8984375 462.078125 C-1.16402578 456.13587964 -0.85242776 450.2353477 -0.8613348 444.07961369 C-0.85707147 442.92278096 -0.85707147 442.92278096 -0.85272202 441.74257788 C-0.84440751 439.16122448 -0.84310936 436.57991616 -0.84178162 433.99855042 C-0.83721406 432.12809819 -0.83221375 430.25764698 -0.82681805 428.38719696 C-0.81324964 423.24950327 -0.80582233 418.1118162 -0.79939139 412.97410929 C-0.79138176 407.43293206 -0.77768591 401.89176855 -0.76467896 396.3506012 C-0.74292421 386.75084933 -0.72477605 377.15109607 -0.70907402 367.55133247 C-0.68636629 353.67166647 -0.65822469 339.79201567 -0.62875474 325.91236257 C-0.58108993 303.39381153 -0.53781427 280.87525425 -0.49731445 258.35668945 C-0.45796104 236.481359 -0.41653766 214.60603407 -0.37231445 192.73071289 C-0.37095192 192.0563203 -0.36958939 191.38192771 -0.36818558 190.68709898 C-0.3545001 183.91451948 -0.34077257 177.14194006 -0.32701423 170.3693607 C-0.21165105 113.57958541 -0.10338159 56.78979829 0 0 Z " fill="#151443" transform="translate(768,33)"/>
<path d="M0 0 C1.58183075 -0.00021904 1.58183075 -0.00021904 3.19561768 -0.0004425 C6.65842798 0.0002505 10.12118354 0.00801412 13.58398438 0.01586914 C15.99393688 0.0177355 18.40388976 0.01915837 20.81384277 0.02015686 C27.13982196 0.0239649 33.46577798 0.03378051 39.79174805 0.04486084 C46.2537403 0.05511185 52.71573632 0.05966238 59.17773438 0.06469727 C71.84441089 0.07540436 84.5110714 0.09226641 97.17773438 0.11352539 C97.17833146 1.06001593 97.17892855 2.00650647 97.17954373 2.98167855 C97.21529625 59.09767576 97.27209935 115.2136197 97.35565533 171.32956708 C97.36568608 178.0698088 97.37552137 184.81005081 97.38525391 191.55029297 C97.38622571 192.22101079 97.38719752 192.89172862 97.38819877 193.58277123 C97.41957884 215.30373666 97.4380637 237.02468969 97.44982684 258.74567386 C97.46233341 281.70959975 97.48960688 304.67347596 97.53234744 327.63736814 C97.55746483 341.38751055 97.57085293 355.1375611 97.56916395 368.88772678 C97.56913416 378.32099807 97.58379005 387.75417591 97.60989866 397.18741078 C97.62452372 402.62716828 97.63276535 408.06673411 97.62353706 413.50650787 C97.61521894 418.49432958 97.62549047 423.48176706 97.650071 428.46953195 C97.65573073 430.26654832 97.65477651 432.0636014 97.64624682 433.86060644 C97.56260777 453.14555563 101.34254799 469.54057767 115.02539062 484.09008789 C132.28686964 500.31775782 153.11917245 503.76144441 175.78710938 503.57446289 C177.73089474 503.57207055 179.67468246 503.57117481 181.61846924 503.57168579 C185.66262607 503.56858268 189.70642215 503.55220709 193.75048828 503.52514648 C198.90331498 503.49107922 204.0557492 503.48352219 209.20867538 503.48503685 C213.21182925 503.4844902 217.21489939 503.47347737 221.21802521 503.45903397 C223.11720398 503.45272591 225.01639209 503.44874133 226.91558075 503.44724655 C249.55156958 503.4098872 269.85566136 499.99476494 286.99023438 483.80102539 C290.66168649 479.97194385 293.36273176 475.93063548 295.88867188 471.27758789 C297.12611738 469.20017938 298.39436253 467.73003203 300.17773438 466.11352539 C300.57992187 467.0996582 300.57992187 467.0996582 300.99023438 468.10571289 C302.3676351 471.44953438 303.76665479 474.78381381 305.17773438 478.11352539 C305.45649414 478.77239746 305.73525391 479.43126953 306.02246094 480.11010742 C321.35232049 516.09198706 342.45337507 546.11841463 370.45410156 573.265625 C371.06930664 573.86898682 371.68451172 574.47234863 372.31835938 575.09399414 C372.87040039 575.62919678 373.42244141 576.16439941 373.99121094 576.71582031 C375.17773438 578.11352539 375.17773438 578.11352539 375.17773438 580.11352539 C373.76342773 581.39111328 373.76342773 581.39111328 371.76757812 582.83618164 C371.03321533 583.36993408 370.29885254 583.90368652 369.54223633 584.45361328 C368.34087036 585.30620728 368.34087036 585.30620728 367.11523438 586.17602539 C366.29176514 586.76311279 365.4682959 587.3502002 364.61987305 587.95507812 C344.76081045 601.96477898 322.88052094 613.46144729 300.17773438 622.11352539 C299.42540527 622.40533691 298.67307617 622.69714844 297.89794922 622.99780273 C255.05325055 639.32694876 206.4502933 644.20915208 161.17773438 638.11352539 C159.623125 637.90421387 159.623125 637.90421387 158.03710938 637.69067383 C101.83167461 629.92284526 48.48959832 607.86764575 6.41601562 569.16821289 C4.3073391 567.23249936 2.1598711 565.35532563 -0.00976562 563.48852539 C-6.50337318 557.80012517 -12.09755395 551.72374162 -17.50585938 544.98852539 C-18.99721941 543.13752879 -20.50888309 541.3026169 -22.04492188 539.48852539 C-55.57693219 499.74688354 -72.99967095 448.7695477 -72.96270752 397.12928772 C-72.965298 395.65961599 -72.96831303 394.18994495 -72.97171092 392.72027487 C-72.97970321 388.71771113 -72.98156609 384.7151654 -72.98230839 380.71259463 C-72.98417248 376.38190339 -72.99172617 372.0512212 -72.9984436 367.72053528 C-73.01196904 358.27025452 -73.01804173 348.81997804 -73.02245426 339.36968923 C-73.02522484 333.46261395 -73.02946349 327.55554029 -73.03395844 321.64846611 C-73.04614037 305.27273823 -73.05644385 288.89701164 -73.05983353 272.52127934 C-73.06005309 271.47528817 -73.06027266 270.429297 -73.06049888 269.35160914 C-73.06071716 268.30322938 -73.06093543 267.25484963 -73.06116033 266.1747008 C-73.06160378 264.05054923 -73.06205034 261.92639766 -73.0625 259.80224609 C-73.06272143 258.7486111 -73.06294286 257.69497611 -73.063171 256.60941278 C-73.06712091 239.52864806 -73.08458566 222.44792594 -73.10785952 205.36717767 C-73.13159651 187.80404409 -73.14403634 170.24093188 -73.14520144 152.677782 C-73.14611654 142.8272131 -73.1518278 132.97669984 -73.17002106 123.12614632 C-73.18545331 114.7415529 -73.19052385 106.35703236 -73.18228295 97.97242744 C-73.17838838 93.69926048 -73.17924771 89.42624015 -73.1933403 85.15309143 C-73.20614997 81.23297974 -73.20482044 77.31312379 -73.19274959 73.3930121 C-73.19080483 71.98333341 -73.1938138 70.57363616 -73.20259395 69.16398347 C-73.31269934 50.27402994 -69.01258349 34.08531631 -55.82226562 20.11352539 C-40.20363018 5.13069281 -21.19255127 -0.07765947 0 0 Z " fill="#151443" transform="translate(72.822265625,32.886474609375)"/>
<path d="M0 0 C44.55 0 89.1 0 135 0 C135.08820059 52.64726996 135.16205005 105.29447018 135.20426132 157.94179289 C135.20926408 164.15886791 135.21444137 170.37594278 135.21972656 176.59301758 C135.2207758 177.83071267 135.22182505 179.06840777 135.22290608 180.34360877 C135.24030599 200.37784958 135.27184143 220.41204442 135.30861118 240.44625797 C135.34603207 261.0068935 135.36823829 281.56750498 135.37635398 302.12817317 C135.38183935 314.81273672 135.39915758 327.49717034 135.43166587 340.18169389 C135.45282788 348.88279214 135.4591962 357.58382334 135.45400551 366.28494545 C135.45144639 371.30323036 135.45533857 376.3212884 135.4768219 381.33953285 C135.49637173 385.93986778 135.49721555 390.53982454 135.48359558 395.14017735 C135.48191372 396.79854798 135.48691621 398.45694279 135.49953273 400.11526629 C135.63990175 419.71579941 129.85128365 435.72810711 116.12890625 449.9375 C101.43191943 463.62616964 82.21911999 468.61809015 62.5546875 468.27734375 C46.99943693 467.61182537 32.62362156 461.22878697 21 451 C20.24976563 450.35546875 19.49953125 449.7109375 18.7265625 449.046875 C7.03112197 438.26950659 0.68119536 423.62338989 -0.36654711 407.81928444 C-0.54593938 403.3577352 -0.51543205 398.89889341 -0.48101807 394.43481445 C-0.48276684 392.72158523 -0.48627733 391.00835708 -0.49137473 389.29513454 C-0.50023861 384.63369535 -0.48443069 379.97262994 -0.46426249 375.31123829 C-0.44687674 370.26716523 -0.452842 365.22311073 -0.45587158 360.17901611 C-0.45796195 351.45516018 -0.44548577 342.73142455 -0.42292023 334.00759888 C-0.39031625 321.39466308 -0.37998464 308.78178505 -0.37496826 296.16881168 C-0.36622875 275.70170091 -0.33964973 255.23465416 -0.30175781 234.76757812 C-0.26500288 214.89388345 -0.23670817 195.02020621 -0.21972656 175.14648438 C-0.21867567 173.92004577 -0.21762477 172.69360717 -0.21654204 171.43000376 C-0.21132162 165.27689667 -0.20626685 159.12378945 -0.20129442 152.97068214 C-0.15987425 101.98039789 -0.08615902 50.99023214 0 0 Z " fill="#8FC73E" transform="translate(600,33)"/>
<path d="M0 0 C44.55 0 89.1 0 135 0 C135.08821806 52.35843827 135.1620608 104.71680633 135.20426132 157.07529769 C135.20926401 163.25975263 135.21444132 169.44420741 135.21972656 175.62866211 C135.2207758 176.85985135 135.22182505 178.0910406 135.22290608 179.35953861 C135.24030097 199.28249749 135.27183363 219.20541011 135.30861118 239.12834156 C135.34604607 259.57824552 135.36824125 280.02812528 135.37635398 300.47806209 C135.38183645 313.09198844 135.39913887 325.70578399 135.43166587 338.31967007 C135.45284518 346.97499555 135.4591923 355.63025362 135.45400551 364.28560311 C135.45144907 369.27578266 135.45530772 374.26573398 135.4768219 379.25587273 C135.4964099 383.8328741 135.49719124 388.40949562 135.48359558 392.98651516 C135.48191739 394.63415434 135.48688731 396.28181806 135.49953273 397.92940957 C135.64019808 417.40412445 130.87205887 434.5674539 117 449 C101.28977146 462.75201309 82.86211831 469.51238342 62.09814453 468.17138672 C42.44146359 466.56573277 25.60928959 458.3967627 12.6875 443.1875 C1.90535151 428.89231542 -0.4601838 414.2538418 -0.36076355 396.83990479 C-0.3620738 395.12187932 -0.36470425 393.40385444 -0.36853105 391.68583274 C-0.37520482 386.99261551 -0.3632864 382.29960563 -0.34819686 377.60641479 C-0.33519568 372.53500402 -0.33962884 367.46360416 -0.34190369 362.3921814 C-0.34347385 353.61480203 -0.33409158 344.83748975 -0.31719017 336.06012726 C-0.29276979 323.36967223 -0.28499179 310.67924953 -0.2812262 297.98877355 C-0.27466648 277.39744525 -0.25471833 256.80615267 -0.22631836 236.21484375 C-0.19876537 216.21679869 -0.17753786 196.21876335 -0.16479492 176.22070312 C-0.16400675 174.98723964 -0.16321858 173.75377615 -0.16240653 172.48293498 C-0.15849131 166.29477716 -0.15470021 160.10661926 -0.15097082 153.91846132 C-0.11988985 102.61227581 -0.0645948 51.30615641 0 0 Z " fill="#8FC73E" transform="translate(224,33)"/>
<path d="M0 0 C4.21756241 4.0018916 5.56631034 6.99844649 5.72436523 12.73095703 C5.74360865 13.3750993 5.76285206 14.01924156 5.7826786 14.68290329 C5.84445783 16.91346745 5.88974216 19.14401449 5.93359375 21.375 C5.95215361 22.17498539 5.97071346 22.97497078 5.98983574 23.79919815 C6.69028801 54.34993207 6.41586933 84.93712008 6.375 115.4921875 C6.354375 137.3134375 6.33375 159.1346875 6.3125 181.6171875 C-48.4675 181.6171875 -103.2475 181.6171875 -159.6875 181.6171875 C-160.28146624 137.81217713 -160.28146624 137.81217713 -160.4453125 121.49609375 C-160.45517307 120.51591341 -160.46503365 119.53573307 -160.47519302 118.5258503 C-160.53759415 112.27835099 -160.59768995 106.03083165 -160.65699768 99.78330231 C-160.68763059 96.60363227 -160.71958102 93.42397775 -160.75183105 90.24432373 C-160.86729705 78.72958498 -160.96359414 67.21506416 -161.01573563 55.69984818 C-161.03858135 50.69660832 -161.06970876 45.69376312 -161.12182617 40.69073486 C-161.17049176 35.97238387 -161.19514011 31.25451325 -161.20132828 26.5359211 C-161.20765859 24.80098727 -161.22253027 23.06606037 -161.24657822 21.33128166 C-161.27805617 18.95732134 -161.278381 16.58529408 -161.27099609 14.21118164 C-161.28740395 13.52453997 -161.3038118 12.83789829 -161.32071686 12.1304493 C-161.24908545 6.59950209 -159.43039769 4.38764706 -155.6875 0.6171875 C-121.85998654 -24.55446223 -33.25316745 -27.24912333 0 0 Z " fill="#8FC73E" transform="translate(555.6875,16.3828125)"/>
<path d="M0 0 C4.29 0 8.58 0 13 0 C13.57799282 5.19117488 14.14727326 10.38320996 14.70898438 15.57617188 C14.900684 17.33749262 15.09463838 19.09856965 15.29101562 20.859375 C16.37550111 30.59761204 17.35755202 40.18221741 17 50 C17.66 50 18.32 50 19 50 C18.97365479 48.86989502 18.94730957 47.73979004 18.92016602 46.57543945 C18.92331365 41.89362913 19.54042248 37.40859682 20.27734375 32.79296875 C20.40814835 31.9457576 20.53895294 31.09854645 20.67372131 30.22566223 C20.94915002 28.44955838 21.22746466 26.67389986 21.50854492 24.89868164 C21.93886026 22.17890257 22.35979969 19.45779468 22.77929688 16.73632812 C23.04893506 15.0051235 23.31909874 13.27400062 23.58984375 11.54296875 C23.71592514 10.73047165 23.84200653 9.91797455 23.97190857 9.08085632 C24.46954437 5.9521651 24.99622849 3.01131453 26 0 C29.3 0 32.6 0 36 0 C36.68348581 3.92320856 37.3583342 7.84781172 38.02636719 11.77368164 C38.36234853 13.73851369 38.70449185 15.70228901 39.046875 17.66601562 C40.82139078 28.13043954 41.88246712 38.38343766 43 49 C44.65 32.83 46.3 16.66 48 0 C51.96 0 55.92 0 60 0 C60.34392888 7.73839982 59.04005292 15.16121107 57.8125 22.78125 C57.58776213 24.20462748 57.3635684 25.62809098 57.13989258 27.05163574 C56.55346899 30.77439298 55.95972223 34.49594525 55.36437988 38.21728516 C54.75667343 42.02435743 54.15598696 45.83253651 53.5546875 49.640625 C52.37661259 57.09484327 51.19078963 64.54780111 50 72 C47.85423363 72.02685938 45.70837355 72.04633088 43.5625 72.0625 C42.36753906 72.07410156 41.17257813 72.08570313 39.94140625 72.09765625 C37 72 37 72 36 71 C35.56684344 68.38947178 35.18810961 65.79058831 34.84375 63.16796875 C34.7365564 62.37981277 34.62936279 61.5916568 34.5189209 60.77961731 C34.17529363 58.24943166 33.83727995 55.71853897 33.5 53.1875 C33.16204679 50.66727285 32.82286548 48.14722796 32.4810791 45.6275177 C32.26831414 44.05743662 32.05785889 42.48704042 31.84997559 40.91630554 C31.39571309 37.55057108 30.86482662 34.28312442 30 31 C29.78851318 32.3300708 29.78851318 32.3300708 29.57275391 33.68701172 C29.04128755 37.02336685 28.50803683 40.35942715 27.97363281 43.6953125 C27.74409242 45.13042219 27.51523344 46.56564106 27.28710938 48.00097656 C26.00981013 56.03451655 24.66760874 64.0359994 23 72 C18.71 72 14.42 72 10 72 C3.98260171 32.26356585 3.98260171 32.26356585 2.1875 19.125 C2.02060669 17.91142822 2.02060669 17.91142822 1.8503418 16.67333984 C1.10598151 11.12640716 0.53547807 5.57093695 0 0 Z " fill="#191846" transform="translate(111,731)"/>
<path d="M0 0 C4.62 0 9.24 0 14 0 C16.58102465 11.64206865 18.79837454 23.30181481 20.69238281 35.07617188 C20.84932617 36.05005859 21.00626953 37.02394531 21.16796875 38.02734375 C21.30485107 38.89093506 21.4417334 39.75452637 21.58276367 40.64428711 C21.96393739 42.79639081 22.43994014 44.88825385 23 47 C23.10022461 46.32235596 23.20044922 45.64471191 23.30371094 44.9465332 C25.5425356 29.89284876 28.02126569 14.92536023 31 0 C35.62 0 40.24 0 45 0 C45.68250372 9.99901077 46.34900197 19.99889596 47 30 C47.06364746 30.96196289 47.12729492 31.92392578 47.19287109 32.91503906 C48.04092454 45.94908577 48.10522139 58.9408568 48 72 C44.37 72 40.74 72 37 72 C36.34 57.81 35.68 43.62 35 29 C33.11376372 39.12553559 33.11376372 39.12553559 31.23095703 49.25170898 C27.43454644 69.56545356 27.43454644 69.56545356 26 71 C23.32941149 71.14115161 20.67567762 71.04247107 18 71 C15.9825602 65.46138056 14.74874201 59.81049733 13.5 54.0625 C13.18095703 52.64614258 13.18095703 52.64614258 12.85546875 51.20117188 C11.09003741 43.11592955 10.10463715 35.28477861 9 27 C8.34 41.85 7.68 56.7 7 72 C3.37 72 -0.26 72 -4 72 C-3.35070686 55.67284173 -2.46228434 39.37009668 -1.4375 23.0625 C-1.29733179 20.80665269 -1.15735702 18.55079335 -1.01757812 16.29492188 C-0.68060207 10.86314082 -0.34105456 5.43152643 0 0 Z " fill="#1A1947" transform="translate(543,731)"/>
<path d="M0 0 C4.04909895 3.25688394 5.96252489 5.90694038 7 11 C7.75406635 18.45945631 7.01120482 24.56060765 3 31 C1.36328125 32.75 1.36328125 32.75 0 34 C0.268125 34.515625 0.53625 35.03125 0.8125 35.5625 C1.204375 36.366875 1.59625 37.17125 2 38 C2.474375 38.94875 2.94875 39.8975 3.4375 40.875 C5.69034198 46.15735968 6.32712402 51.79651351 7.1875 57.4375 C7.36474609 58.55060547 7.54199219 59.66371094 7.72460938 60.81054688 C8.15789604 63.53908184 8.58006824 66.26937777 9 69 C4.71 69 0.42 69 -4 69 C-5.00699645 64.66216913 -5.95289621 60.33021178 -6.73046875 55.9453125 C-6.85768311 55.23439453 -6.98489746 54.52347656 -7.1159668 53.79101562 C-7.36949497 52.3610716 -7.61717651 50.93007711 -7.85864258 49.49804688 C-8.47036084 46.06413012 -9.03547023 43.94679465 -11 41 C-12.65 40.67 -14.3 40.34 -16 40 C-16 49.57 -16 59.14 -16 69 C-19.96 69 -23.92 69 -28 69 C-28 45.57 -28 22.14 -28 -2 C-18.48189255 -3.58635124 -8.76167353 -4.6197915 0 0 Z " fill="#171645" transform="translate(744,734)"/>
<path d="M0 0 C4.04909895 3.25688394 5.96252489 5.90694038 7 11 C7.75406635 18.45945631 7.01120482 24.56060765 3 31 C1.36328125 32.75 1.36328125 32.75 0 34 C0.268125 34.515625 0.53625 35.03125 0.8125 35.5625 C1.204375 36.366875 1.59625 37.17125 2 38 C2.474375 38.94875 2.94875 39.8975 3.4375 40.875 C5.69034198 46.15735968 6.32712402 51.79651351 7.1875 57.4375 C7.36474609 58.55060547 7.54199219 59.66371094 7.72460938 60.81054688 C8.15789604 63.53908184 8.58006824 66.26937777 9 69 C4.71 69 0.42 69 -4 69 C-5.00699645 64.66216913 -5.95289621 60.33021178 -6.73046875 55.9453125 C-6.85768311 55.23439453 -6.98489746 54.52347656 -7.1159668 53.79101562 C-7.36949497 52.3610716 -7.61717651 50.93007711 -7.85864258 49.49804688 C-8.47036084 46.06413012 -9.03547023 43.94679465 -11 41 C-12.65 40.67 -14.3 40.34 -16 40 C-16 49.57 -16 59.14 -16 69 C-19.96 69 -23.92 69 -28 69 C-28 45.57 -28 22.14 -28 -2 C-18.48189255 -3.58635124 -8.76167353 -4.6197915 0 0 Z " fill="#171645" transform="translate(430,734)"/>
<path d="M0 0 C4.95 0 9.9 0 15 0 C18.56624906 18.33483667 22.07435562 36.66518959 24.9375 55.125 C25.0982753 56.15548462 25.0982753 56.15548462 25.26229858 57.20678711 C27 68.39523111 27 68.39523111 27 72 C23.04 72 19.08 72 15 72 C13.77731709 66.34509154 13 61.84044472 13 56 C9.04 56 5.08 56 1 56 C0.855625 57.8975 0.71125 59.795 0.5625 61.75 C0.28829689 65.35381232 -0.11924541 68.47698165 -1 72 C-4.96 72 -8.92 72 -13 72 C-12.02472734 61.286557 -10.24827754 50.90973948 -7.96484375 40.39868164 C-6.14668662 31.94893005 -4.67358363 23.46899711 -3.34423828 14.92944336 C-3.19583496 13.99237549 -3.04743164 13.05530762 -2.89453125 12.08984375 C-2.76925049 11.27378662 -2.64396973 10.45772949 -2.51489258 9.61694336 C-1.87522466 6.36582887 -0.91027346 3.18595711 0 0 Z " fill="#1A1947" transform="translate(354,731)"/>
<path d="M0 0 C8.91 0 17.82 0 27 0 C27 3.96 27 7.92 27 12 C22.05 12 17.1 12 12 12 C12 17.61 12 23.22 12 29 C16.62 29 21.24 29 26 29 C26 32.63 26 36.26 26 40 C21.38 40 16.76 40 12 40 C12 46.6 12 53.2 12 60 C17.28 60 22.56 60 28 60 C28 63.96 28 67.92 28 72 C18.76 72 9.52 72 0 72 C0 48.24 0 24.48 0 0 Z " fill="#151443" transform="translate(615,731)"/>
<path d="M0 0 C8.91 0 17.82 0 27 0 C27 3.96 27 7.92 27 12 C22.05 12 17.1 12 12 12 C12 17.61 12 23.22 12 29 C16.62 29 21.24 29 26 29 C26 32.63 26 36.26 26 40 C21.38 40 16.76 40 12 40 C12 46.6 12 53.2 12 60 C17.28 60 22.56 60 28 60 C28 63.96 28 67.92 28 72 C18.76 72 9.52 72 0 72 C0 48.24 0 24.48 0 0 Z " fill="#151443" transform="translate(460,731)"/>
<path d="M0 0 C8.91 0 17.82 0 27 0 C27 3.96 27 7.92 27 12 C22.05 12 17.1 12 12 12 C12 17.61 12 23.22 12 29 C16.62 29 21.24 29 26 29 C26 32.63 26 36.26 26 40 C21.38 40 16.76 40 12 40 C12 46.6 12 53.2 12 60 C17.28 60 22.56 60 28 60 C28 63.96 28 67.92 28 72 C18.76 72 9.52 72 0 72 C0 48.24 0 24.48 0 0 Z " fill="#151443" transform="translate(193,731)"/>
<path d="M0 0 C0.54140625 0.32097656 1.0828125 0.64195312 1.640625 0.97265625 C1.71717036 5.48883224 1.74291196 9.56350842 0.640625 13.97265625 C-0.060625 13.64265625 -0.761875 13.31265625 -1.484375 12.97265625 C-4.741431 11.83976721 -6.93635062 11.53567441 -10.359375 11.97265625 C-12.859375 13.47265625 -12.859375 13.47265625 -14.359375 15.97265625 C-14.96596388 19.53636592 -14.76182562 21.29023999 -12.921875 24.41015625 C-10.67429866 26.65773259 -8.45766155 28.45004265 -5.921875 30.34765625 C-0.31265168 34.59846799 3.57254517 38.7921988 4.640625 45.97265625 C5.26676138 53.41444105 5.26978293 59.83368065 0.640625 65.97265625 C-3.36868529 70.26756124 -7.6690594 72.74873769 -13.55078125 73.23828125 C-15.21947266 73.23054687 -15.21947266 73.23054687 -16.921875 73.22265625 C-18.59443359 73.23039063 -18.59443359 73.23039063 -20.30078125 73.23828125 C-23.22492872 72.9843323 -24.89023468 72.49398476 -27.359375 70.97265625 C-27.41329493 69.18131647 -27.45213071 67.38951726 -27.484375 65.59765625 C-27.50757813 64.59992188 -27.53078125 63.6021875 -27.5546875 62.57421875 C-27.359375 59.97265625 -27.359375 59.97265625 -25.359375 57.97265625 C-24.493125 58.30265625 -23.626875 58.63265625 -22.734375 58.97265625 C-18.30259763 60.28577547 -13.7391891 60.75702496 -9.359375 58.97265625 C-8.12403455 55.2666349 -7.90408755 52.87512011 -8.359375 48.97265625 C-10.90136419 44.73288092 -14.62497944 41.73657827 -18.421875 38.66015625 C-23.73136716 34.07422252 -26.72713722 28.94228035 -27.8359375 21.98046875 C-28.17776513 14.910034 -26.94011467 9.46058397 -22.359375 3.97265625 C-16.52060469 -1.77172285 -7.5807972 -3.30091004 0 0 Z " fill="#191846" transform="translate(888.359375,731.02734375)"/>
<path d="M0 0 C1.1653125 -0.01417969 2.330625 -0.02835938 3.53125 -0.04296875 C6.5 0.1875 6.5 0.1875 8.5 2.1875 C8.2578125 5.0078125 8.2578125 5.0078125 7.625 8.3125 C7.42132812 9.40820312 7.21765625 10.50390625 7.0078125 11.6328125 C6.84023438 12.47585938 6.67265625 13.31890625 6.5 14.1875 C5.30375 13.94 4.1075 13.6925 2.875 13.4375 C-0.36468026 13.07117573 -1.58223371 13.21912835 -4.75 14.4375 C-10.93411877 20.62161877 -11.87649534 28.33597818 -11.9375 36.75 C-11.8282185 44.63821652 -10.48227639 51.14035238 -7 58.25 C-2.88747761 61.43720485 1.38119922 61.00468569 6.5 61.1875 C6.995 67.1275 6.995 67.1275 7.5 73.1875 C0.02749273 75.05562682 -6.66130829 75.07616783 -13.5 71.1875 C-19.9906804 65.93313968 -23.8925824 58.42872208 -25.21875 50.2421875 C-26.50471401 36.27518951 -26.91763407 20.91939298 -18.25390625 9.12890625 C-12.8915431 3.19328379 -7.98188687 0.0441476 0 0 Z " fill="#1A1947" transform="translate(834.5,729.8125)"/>
<path d="M0 0 C8.91 0 17.82 0 27 0 C27 3.96 27 7.92 27 12 C22.05 12 17.1 12 12 12 C12 18.27 12 24.54 12 31 C16.62 31 21.24 31 26 31 C26 34.63 26 38.26 26 42 C21.38 42 16.76 42 12 42 C12 51.9 12 61.8 12 72 C8.04 72 4.08 72 0 72 C0 48.24 0 24.48 0 0 Z " fill="#151443" transform="translate(294,731)"/>
<path d="M0 0 C11.22 0 22.44 0 34 0 C34 4.29 34 8.58 34 13 C30.37 13 26.74 13 23 13 C23 32.47 23 51.94 23 72 C19.04 72 15.08 72 11 72 C11 52.53 11 33.06 11 13 C7.37 13 3.74 13 0 13 C0 8.71 0 4.42 0 0 Z " fill="#151443" transform="translate(661,731)"/>
<path d="M0 0 C3.96 0 7.92 0 12 0 C12 19.8 12 39.6 12 60 C17.28 60 22.56 60 28 60 C28 63.96 28 67.92 28 72 C18.76 72 9.52 72 0 72 C0 48.24 0 24.48 0 0 Z " fill="#151443" transform="translate(244,731)"/>
<path d="M0 0 C3.96 0 7.92 0 12 0 C12 23.76 12 47.52 12 72 C8.04 72 4.08 72 0 72 C0 48.24 0 24.48 0 0 Z " fill="#151443" transform="translate(774,731)"/>
<path d="M0 0 C8 1 8 1 10 3.0625 C11.67849483 7.99307856 11.86923637 12.09595844 9.6875 16.875 C8 19 8 19 5 21 C3.35 21 1.7 21 0 21 C0 14.07 0 7.14 0 0 Z " fill="#F9F9FA" transform="translate(728,742)"/>
<path d="M0 0 C8 1 8 1 10 3.0625 C11.67849483 7.99307856 11.86923637 12.09595844 9.6875 16.875 C8 19 8 19 5 21 C3.35 21 1.7 21 0 21 C0 14.07 0 7.14 0 0 Z " fill="#F9F9FA" transform="translate(414,742)"/>
<path d="M0 0 C0.33 0 0.66 0 1 0 C1.08302368 0.83192871 1.08302368 0.83192871 1.16772461 1.68066406 C1.42128107 4.2040917 1.67934505 6.72703883 1.9375 9.25 C2.02451172 10.12269531 2.11152344 10.99539063 2.20117188 11.89453125 C2.28818359 12.73886719 2.37519531 13.58320312 2.46484375 14.453125 C2.543396 15.22817383 2.62194824 16.00322266 2.70288086 16.80175781 C2.99012731 18.92695671 3.46968327 20.9247523 4 23 C4.12205329 25.67540816 4.04467313 28.31961238 4 31 C1.36 31 -1.28 31 -4 31 C-3.4255089 24.13634317 -2.73600274 17.28546617 -2 10.4375 C-1.9170166 9.63973145 -1.8340332 8.84196289 -1.74853516 8.02001953 C-1.115894 2.23178801 -1.115894 2.23178801 0 0 Z " fill="#EBEBEF" transform="translate(361,745)"/>
</svg>
